<svg width="5" height="8" viewBox="0 0 5 8" fill="none" xmlns="http://www.w3.org/2000/svg">
<path d="M0.39493 0.127872L0.131058 0.389922C0.0486509 0.472394 0.00325213 0.582119 0.00325213 0.699388C0.00325213 0.816592 0.0486509 0.926447 0.131058 1.00892L3.12048 3.99821L0.127741 6.99095C0.0453338 7.07329 0 7.18315 0 7.30035C0 7.41756 0.0453338 7.52748 0.127741 7.60988L0.389987 7.872C0.560525 8.04267 0.838316 8.04267 1.00885 7.872L4.58488 4.30878C4.66723 4.22644 4.72524 4.11672 4.72524 3.99847V3.99711C4.72524 3.87984 4.66716 3.77011 4.58488 3.68777L1.01855 0.127872C0.936203 0.0453992 0.823161 0.000130177 0.705957 0C0.588688 0 0.477207 0.0453992 0.39493 0.127872Z" fill="#35414B"/>
</svg>
